<svg width="30" height="30" viewBox="0 0 30 30" fill="none" xmlns="http://www.w3.org/2000/svg">
<path d="M14.8392 4.63721C12.8215 4.63721 10.849 5.23554 9.1713 6.35655C7.4936 7.47756 6.18598 9.07089 5.41382 10.9351C4.64166 12.7992 4.43962 14.8505 4.83327 16.8295C5.22692 18.8085 6.19856 20.6263 7.62533 22.0531C9.0521 23.4798 10.8699 24.4515 12.8489 24.8451C14.8279 25.2388 16.8792 25.0367 18.7433 24.2646C20.6075 23.4924 22.2008 22.1848 23.3218 20.5071C24.4428 18.8294 25.0412 16.8569 25.0412 14.8392C25.0412 12.1334 23.9663 9.53854 22.0531 7.6253C20.1399 5.71205 17.5449 4.63721 14.8392 4.63721Z" stroke="#121D43" stroke-width="1.5" stroke-miterlimit="10"/>
<path d="M11.5931 11.7259C11.5931 11.7259 11.6418 10.7115 12.7275 9.838C13.3715 9.31921 14.1436 9.16908 14.8392 9.15864C15.4728 9.15053 16.0385 9.25545 16.377 9.41659C16.9567 9.69251 18.0853 10.3661 18.0853 11.7984C18.0853 13.3055 17.0999 13.9901 15.9771 14.7431C14.8543 15.496 14.5494 16.3134 14.5494 17.1579" stroke="#121D43" stroke-width="1.5" stroke-miterlimit="10" stroke-linecap="round"/>
<path d="M14.9007 20.172C14.9007 20.3981 14.7175 20.5813 14.4914 20.5813C14.2654 20.5813 14.0821 20.3981 14.0821 20.172C14.0821 19.946 14.2654 19.7627 14.4914 19.7627C14.7175 19.7627 14.9007 19.946 14.9007 20.172Z" fill="#FAFAFD" stroke="#121D43" stroke-width="1.5"/>
</svg>
