<svg width="25" height="26" viewBox="0 0 25 26" fill="none" xmlns="http://www.w3.org/2000/svg">
<path d="M8.87521 24.4053V20.4303C8.87521 19.4156 9.70382 18.593 10.726 18.593H14.4624C14.9532 18.593 15.424 18.7866 15.7711 19.1311C16.1181 19.4757 16.3131 19.943 16.3131 20.4303V24.4053C16.31 24.8272 16.4767 25.2328 16.7761 25.5322C17.0755 25.8316 17.4829 26 17.9078 26H20.457C21.6475 26.003 22.7904 25.5357 23.6333 24.701C24.4762 23.8664 24.95 22.7331 24.95 21.5512V10.2269C24.95 9.27219 24.5237 8.36659 23.786 7.75407L15.1142 0.878629C13.6058 -0.32687 11.4444 -0.287947 9.981 0.971072L1.50712 7.75407C0.734563 8.34853 0.272818 9.25682 0.25 10.2269V21.5396C0.25 24.003 2.26159 26 4.74302 26H7.23397C8.11659 26 8.83389 25.2931 8.84029 24.4169L8.87521 24.4053Z" fill="#CCCCCC"/>
</svg>
