<svg width="27" height="25" viewBox="0 0 27 25" fill="none" xmlns="http://www.w3.org/2000/svg">
<path d="M13.9564 0C6.77686 0 0.949951 5.37763 0.949951 11.9993C0.949951 15.7571 2.82289 19.1003 5.73634 21.3032V23.7005C5.73634 24.6982 6.80287 25.3202 7.67431 24.8278L10.0935 23.4672C11.3161 23.8171 12.6038 23.9985 13.9434 23.9985C21.123 23.9985 26.9499 18.6209 26.9499 11.9993C26.9629 5.37763 21.136 0 13.9564 0ZM18.5217 10.9367L15.2701 14.8112C15.062 15.0574 14.7238 15.1092 14.4507 14.9537L13.137 14.1892C12.9901 14.1093 12.8187 14.0863 12.6558 14.1244L10.0415 14.7593C9.90824 14.7903 9.76859 14.7789 9.64225 14.7265C9.5159 14.6742 9.40927 14.5836 9.33739 14.4676C9.26552 14.3516 9.23204 14.216 9.24169 14.08C9.25134 13.944 9.30363 13.8145 9.39116 13.7097L12.6948 9.79636C12.8899 9.56312 13.2281 9.49833 13.5012 9.64087L15.036 10.4443C15.1801 10.5192 15.3471 10.5377 15.5042 10.4961L17.8714 9.88707C18.4697 9.73157 18.9249 10.4572 18.5217 10.9367Z" fill="#CCCCCC"/>
</svg>
