<svg width="23" height="23" viewBox="0 0 23 23" fill="none" xmlns="http://www.w3.org/2000/svg">
<path d="M10.6603 0.793945C10.4224 0.793945 10.1943 0.888437 10.0261 1.05663C9.8579 1.22483 9.76341 1.45296 9.76341 1.69082C9.76341 1.92869 9.8579 2.15681 10.0261 2.32501C10.1943 2.49321 10.4224 2.5877 10.6603 2.5877H15.1438V4.82989C15.1438 5.5725 14.8604 6.10076 14.4263 6.45951C13.9725 6.83351 13.2917 7.07208 12.4531 7.07208C12.2153 7.07208 11.9872 7.16657 11.819 7.33477C11.6508 7.50297 11.5563 7.73109 11.5563 7.96896C11.5563 8.20682 11.6508 8.43495 11.819 8.60314C11.9872 8.77134 12.2153 8.86583 12.4531 8.86583C13.6146 8.86583 14.7285 8.53668 15.5689 7.8425C16.4263 7.13217 16.9375 6.0909 16.9375 4.82989V1.69082C16.9375 1.45296 16.843 1.22483 16.6748 1.05663C16.5066 0.888437 16.2785 0.793945 16.0407 0.793945H10.6603ZM8.80106 5.82991C8.73349 5.66541 8.61855 5.52471 8.47083 5.4257C8.32311 5.32668 8.14929 5.27381 7.97145 5.27381C7.79362 5.27381 7.6198 5.32668 7.47208 5.4257C7.32436 5.52471 7.20941 5.66541 7.14184 5.82991L0.861914 21.0804C0.771287 21.3004 0.771777 21.5474 0.863276 21.7671C0.954775 21.9868 1.12979 22.1611 1.34982 22.2517C1.56984 22.3423 1.81686 22.3419 2.03652 22.2504C2.25619 22.1589 2.43051 21.9838 2.52114 21.7638L4.14179 17.8265H11.8011L13.4218 21.7638C13.4666 21.8728 13.5325 21.9718 13.6157 22.0553C13.6988 22.1388 13.7976 22.205 13.9064 22.2504C14.0152 22.2957 14.1318 22.3191 14.2496 22.3193C14.3674 22.3196 14.4841 22.2966 14.5931 22.2517C14.702 22.2068 14.8011 22.1409 14.8846 22.0578C14.968 21.9746 15.0343 21.8759 15.0796 21.7671C15.1249 21.6583 15.1484 21.5417 15.1486 21.4239C15.1488 21.3061 15.1259 21.1893 15.081 21.0804L13.3231 16.8113C13.3028 16.6577 13.2428 16.5122 13.1491 16.3888L8.80106 5.82991ZM11.0621 16.0337H4.87992L7.97145 8.52681L11.0621 16.0337ZM18.7313 0.793945C18.9691 0.793945 19.1973 0.888437 19.3655 1.05663C19.5337 1.22483 19.6282 1.45296 19.6282 1.69082V6.1752H21.4219C21.6598 6.1752 21.8879 6.2697 22.0561 6.43789C22.2243 6.60609 22.3188 6.83421 22.3188 7.07208C22.3188 7.30995 22.2243 7.53807 22.0561 7.70627C21.8879 7.87446 21.6598 7.96896 21.4219 7.96896H19.6282V16.0408C19.6282 16.2787 19.5337 16.5068 19.3655 16.675C19.1973 16.8432 18.9691 16.9377 18.7313 16.9377C18.4934 16.9377 18.2653 16.8432 18.0971 16.675C17.9289 16.5068 17.8344 16.2787 17.8344 16.0408V1.69082C17.8344 1.45296 17.9289 1.22483 18.0971 1.05663C18.2653 0.888437 18.4934 0.793945 18.7313 0.793945Z" fill="#121D43"/>
</svg>
