<svg width="26" height="21" viewBox="0 0 26 21" fill="none" xmlns="http://www.w3.org/2000/svg">
<path d="M24.6085 3.504C24.1085 3.24 23.0597 2.964 21.6329 3.948L19.8402 5.196C19.706 1.464 18.0597 0 14.0597 0H6.74263C2.5719 0 0.949951 1.596 0.949951 5.7V15.3C0.949951 18.06 2.47434 21 6.74263 21H14.0597C18.0597 21 19.706 19.536 19.8402 15.804L21.6329 17.052C22.389 17.58 23.0475 17.748 23.5719 17.748C24.0231 17.748 24.3768 17.616 24.6085 17.496C25.1085 17.244 25.95 16.56 25.95 14.844V6.156C25.95 4.44 25.1085 3.756 24.6085 3.504ZM12.2304 9.756C10.9743 9.756 9.93776 8.748 9.93776 7.5C9.93776 6.252 10.9743 5.244 12.2304 5.244C13.4865 5.244 14.5231 6.252 14.5231 7.5C14.5231 8.748 13.4865 9.756 12.2304 9.756Z" fill="#CCCCCC"/>
</svg>
