<svg width="18" height="22" viewBox="0 0 18 22" fill="none" xmlns="http://www.w3.org/2000/svg">
<path d="M9.0196 1.91016C5.7096 1.91016 3.0196 4.60016 3.0196 7.91016V10.8002C3.0196 11.4102 2.7596 12.3402 2.4496 12.8602L1.2996 14.7702C0.5896 15.9502 1.0796 17.2602 2.3796 17.7002C6.6896 19.1402 11.3396 19.1402 15.6496 17.7002C16.8596 17.3002 17.3896 15.8702 16.7296 14.7702L15.5796 12.8602C15.2796 12.3402 15.0196 11.4102 15.0196 10.8002V7.91016C15.0196 4.61016 12.3196 1.91016 9.0196 1.91016Z" stroke="#121D43" stroke-width="1.5" stroke-miterlimit="10" stroke-linecap="round"/>
<path d="M10.8696 2.20043C9.66027 1.85602 8.37884 1.85602 7.16956 2.20043C7.45956 1.46043 8.17956 0.94043 9.01956 0.94043C9.85956 0.94043 10.5796 1.46043 10.8696 2.20043V2.20043Z" stroke="#121D43" stroke-width="1.5" stroke-miterlimit="10" stroke-linecap="round" stroke-linejoin="round"/>
<path d="M12.0196 18.0596C12.0196 19.7096 10.6696 21.0596 9.01959 21.0596C8.19959 21.0596 7.43959 20.7196 6.89959 20.1796C6.33775 19.6169 6.02139 18.8547 6.01959 18.0596" stroke="#121D43" stroke-width="1.5" stroke-miterlimit="10"/>
</svg>

