<svg width="21" height="26" viewBox="0 0 21 26" fill="none" xmlns="http://www.w3.org/2000/svg">
<path d="M10.3342 2.36276L10.2733 2.3357L10.2124 2.36276L2.22206 5.91276L2.13296 5.95234V6.04984V11.4148C2.13296 16.6351 5.57281 21.4567 10.2291 22.893L10.2733 22.9067L10.3175 22.893C14.9738 21.4567 18.4137 16.6351 18.4137 11.4148V6.04984V5.95234L18.3246 5.91276L10.3342 2.36276ZM0.15 4.6634L10.2733 0.164148L20.3966 4.6634V11.4148C20.3966 17.6743 16.0724 23.5225 10.2733 24.9581C4.47419 23.5225 0.15 17.6743 0.15 11.4148V4.6634ZM11.2648 6.99887V8.98183H9.28183V6.99887H11.2648ZM11.2648 11.5648V18.1137H9.28183V11.5648H11.2648Z" fill="#121D43" stroke="#FAFAFD" stroke-width="0.3"/>
</svg>
