<svg width="16" height="22" viewBox="0 0 16 22" fill="none" xmlns="http://www.w3.org/2000/svg">
<path d="M8.15973 9.86975C8.05973 9.85975 7.93973 9.85975 7.82973 9.86975C6.68193 9.83078 5.59437 9.34658 4.79736 8.5197C4.00034 7.69283 3.55647 6.5882 3.55973 5.43974C3.55973 2.98974 5.53973 0.999745 7.99973 0.999745C8.58214 0.989239 9.16092 1.09355 9.70302 1.30672C10.2451 1.5199 10.7399 1.83776 11.1592 2.24216C11.5784 2.64656 11.9139 3.12957 12.1465 3.66363C12.3791 4.19769 12.5042 4.77233 12.5147 5.35474C12.5252 5.93716 12.4209 6.51594 12.2077 7.05804C11.9946 7.60013 11.6767 8.09494 11.2723 8.51419C10.8679 8.93345 10.3849 9.26895 9.85084 9.50154C9.31678 9.73412 8.74214 9.85924 8.15973 9.86975V9.86975ZM3.15973 13.5597C0.739727 15.1797 0.739727 17.8197 3.15973 19.4297C5.90973 21.2697 10.4197 21.2697 13.1697 19.4297C15.5897 17.8097 15.5897 15.1697 13.1697 13.5597C10.4297 11.7297 5.91973 11.7297 3.15973 13.5597V13.5597Z" stroke="#121D43" stroke-width="1.5" stroke-linecap="round" stroke-linejoin="round"/>
</svg>
