<svg width="20" height="20" viewBox="0 0 20 20" fill="none" xmlns="http://www.w3.org/2000/svg">
<path d="M15 4C15 4.55229 15.4477 5 16 5H19C19.5523 5 20 5.44772 20 6V14C20 14.5523 19.5523 15 19 15H16C15.4477 15 15 15.4477 15 16V17C15 17.2652 15.1054 17.5196 15.2929 17.7071C15.4804 17.8946 15.7348 18 16 18H17C17.5523 18 18 18.4477 18 19C18 19.5523 17.5523 20 17 20H15.5C14.95 20 14 19.55 14 19C14 19.55 13.05 20 12.5 20H11C10.4477 20 10 19.5523 10 19C10 18.4477 10.4477 18 11 18H12C12.2652 18 12.5196 17.8946 12.7071 17.7071C12.8946 17.5196 13 17.2652 13 17V3C13 2.73478 12.8946 2.48043 12.7071 2.29289C12.5196 2.10536 12.2652 2 12 2H11C10.4477 2 10 1.55228 10 1C10 0.447715 10.4477 0 11 0H12.5C13.05 0 14 0.45 14 1C14 0.45 14.95 0 15.5 0H17C17.5523 0 18 0.447715 18 1C18 1.55228 17.5523 2 17 2H16C15.7348 2 15.4804 2.10536 15.2929 2.29289C15.1054 2.48043 15 2.73478 15 3V4ZM0 6C0 5.44772 0.447715 5 1 5H10C10.5523 5 11 5.44772 11 6C11 6.55229 10.5523 7 10 7H3C2.44772 7 2 7.44772 2 8V12C2 12.5523 2.44772 13 3 13H10C10.5523 13 11 13.4477 11 14C11 14.5523 10.5523 15 10 15H1C0.447715 15 0 14.5523 0 14V6ZM17 13C17.5523 13 18 12.5523 18 12V8C18 7.44772 17.5523 7 17 7H16C15.4477 7 15 7.44772 15 8V12C15 12.5523 15.4477 13 16 13H17ZM6.5 10C6.5 9.60218 6.34197 9.22065 6.06066 8.93934C5.77936 8.65804 5.39783 8.5 5 8.5C4.60218 8.5 4.22064 8.65804 3.93934 8.93934C3.65804 9.22065 3.5 9.60218 3.5 10C3.5 10.3978 3.65804 10.7794 3.93934 11.0607C4.22064 11.342 4.60218 11.5 5 11.5C5.39783 11.5 5.77936 11.342 6.06066 11.0607C6.34197 10.7794 6.5 10.3978 6.5 10ZM11 8.89C10.39 8.33 9.44 8.38 8.88 9C8.32 9.6 8.37 10.55 9 11.11C9.55 11.63 10.43 11.63 11 11.11V8.89Z" fill="#121D43"/>
<path d="M8.98966 9.10235L8.99132 9.10054C9.48178 8.55753 10.3016 8.50082 10.85 8.95801V11.0417C10.336 11.4673 9.57889 11.4509 9.10305 11.001L9.1031 11.001L9.09966 10.9979C8.53073 10.4922 8.48889 9.63889 8.98966 9.10235ZM14.85 4C14.85 4.63513 15.3649 5.15 16 5.15H19C19.4694 5.15 19.85 5.53056 19.85 6V14C19.85 14.4694 19.4694 14.85 19 14.85H16C15.3649 14.85 14.85 15.3649 14.85 16V17C14.85 17.305 14.9712 17.5975 15.1868 17.8132C15.4025 18.0288 15.695 18.15 16 18.15H17C17.4694 18.15 17.85 18.5306 17.85 19C17.85 19.4694 17.4694 19.85 17 19.85H15.5C15.2576 19.85 14.9087 19.7479 14.6202 19.5772C14.4772 19.4926 14.3566 19.3954 14.2732 19.2934C14.1899 19.1914 14.15 19.0926 14.15 19H14H13.85C13.85 19.0926 13.8101 19.1914 13.7268 19.2934C13.6434 19.3954 13.5228 19.4926 13.3799 19.5772C13.0913 19.7479 12.7424 19.85 12.5 19.85H11C10.5306 19.85 10.15 19.4694 10.15 19C10.15 18.5306 10.5306 18.15 11 18.15H12C12.305 18.15 12.5975 18.0288 12.8132 17.8132C13.0288 17.5975 13.15 17.305 13.15 17V3C13.15 2.695 13.0288 2.40249 12.8132 2.18683C12.5975 1.97116 12.305 1.85 12 1.85H11C10.5306 1.85 10.15 1.46944 10.15 1C10.15 0.530558 10.5306 0.15 11 0.15H12.5C12.7424 0.15 13.0913 0.252054 13.3799 0.422837C13.5228 0.507433 13.6434 0.604585 13.7268 0.706622C13.8101 0.80857 13.85 0.907353 13.85 1H14H14.15C14.15 0.907353 14.1899 0.80857 14.2732 0.706622C14.3566 0.604585 14.4772 0.507433 14.6201 0.422837C14.9087 0.252054 15.2576 0.15 15.5 0.15H17C17.4694 0.15 17.85 0.530558 17.85 1C17.85 1.46944 17.4694 1.85 17 1.85H16C15.695 1.85 15.4025 1.97116 15.1868 2.18683C14.9712 2.40249 14.85 2.695 14.85 3V4ZM0.15 6C0.15 5.53056 0.530558 5.15 1 5.15H10C10.4694 5.15 10.85 5.53056 10.85 6C10.85 6.46944 10.4694 6.85 10 6.85H3C2.36487 6.85 1.85 7.36487 1.85 8V12C1.85 12.6351 2.36487 13.15 3 13.15H10C10.4694 13.15 10.85 13.5306 10.85 14C10.85 14.4694 10.4694 14.85 10 14.85H1C0.530558 14.85 0.15 14.4694 0.15 14V6ZM17 13.15C17.6351 13.15 18.15 12.6351 18.15 12V8C18.15 7.36487 17.6351 6.85 17 6.85H16C15.3649 6.85 14.85 7.36487 14.85 8V12C14.85 12.6351 15.3649 13.15 16 13.15H17ZM5.9546 9.04541C6.20777 9.29858 6.35 9.64196 6.35 10C6.35 10.358 6.20777 10.7014 5.9546 10.9546C5.70142 11.2078 5.35804 11.35 5 11.35C4.64196 11.35 4.29858 11.2078 4.04541 10.9546C3.79223 10.7014 3.65 10.358 3.65 10C3.65 9.64196 3.79223 9.29858 4.04541 9.04541C4.29858 8.79223 4.64196 8.65 5 8.65C5.35804 8.65 5.70142 8.79223 5.9546 9.04541Z" stroke="#FAFAFD" stroke-width="0.3"/>
</svg>
