<svg width="25" height="23" viewBox="0 0 25 23" fill="none" xmlns="http://www.w3.org/2000/svg">
<path d="M15.6762 4.55786C15.6762 4.55786 15.6762 1 12.4148 1C9.15342 1 9.15342 4.55786 9.15342 4.55786M12.4148 15.2314C17.8121 15.2314 22.0929 12.7954 23.4094 11.9548C23.6791 11.7826 23.8296 11.4843 23.8296 11.1643V5.55786C23.8296 5.00557 23.3819 4.55786 22.8296 4.55786H2C1.44772 4.55786 1 5.00557 1 5.55786V11.1643C1 11.4843 1.15051 11.7826 1.42017 11.9548C2.73671 12.7954 7.0175 15.2314 12.4148 15.2314ZM12.4148 17.0104V13.4525V17.0104ZM1.81534 13.563V21.3471C1.81534 21.8994 2.26306 22.3471 2.81534 22.3471H22.0142C22.5665 22.3471 23.0142 21.8994 23.0142 21.3471V13.563C23.0142 13.0107 22.5665 12.563 22.0142 12.563H2.81534C2.26306 12.563 1.81534 13.0107 1.81534 13.563Z" stroke="#121D43" stroke-linecap="round" stroke-linejoin="round"/>
</svg>
