<svg width="20" height="24" viewBox="0 0 20 24" fill="none" xmlns="http://www.w3.org/2000/svg">
<path d="M19.1137 15.0852C19.1137 14.3472 18.8206 13.6395 18.2988 13.1177C17.777 12.5959 17.0693 12.3028 16.3314 12.3028H3.34707C2.60914 12.3028 1.90144 12.5959 1.37965 13.1177C0.857853 13.6395 0.564713 14.3472 0.564713 15.0852V16.0126C0.564713 19.6686 4.01483 23.4322 9.83923 23.4322C15.6636 23.4322 19.1137 19.6686 19.1137 16.0126V15.0852ZM2.41962 15.0852C2.41962 14.8392 2.51733 14.6033 2.69126 14.4293C2.86519 14.2554 3.10109 14.1577 3.34707 14.1577H16.3314C16.5774 14.1577 16.8133 14.2554 16.9872 14.4293C17.1611 14.6033 17.2588 14.8392 17.2588 15.0852V16.0126C17.2588 18.68 14.6026 21.5773 9.83923 21.5773C5.07584 21.5773 2.41962 18.68 2.41962 16.0126V15.0852ZM14.9402 5.34692C14.9403 4.24723 14.585 3.17696 13.9272 2.29566C13.2695 1.41435 12.3446 0.769196 11.2903 0.456362C10.2361 0.143528 9.10897 0.179767 8.07699 0.559677C7.04501 0.939586 6.16344 1.64282 5.56368 2.56456H2.41962C2.17364 2.56456 1.93774 2.66227 1.76381 2.8362C1.58988 3.01014 1.49216 3.24604 1.49216 3.49201V7.20182C1.49216 7.2315 1.49216 7.25932 1.49587 7.28714H1.49216V9.05672C1.49216 9.79465 1.7853 10.5024 2.3071 11.0241C2.82889 11.5459 3.53659 11.8391 4.27452 11.8391H4.99237C5.18353 11.839 5.37157 11.7906 5.53912 11.6986C5.70666 11.6066 5.8483 11.4738 5.95093 11.3125C6.05356 11.1512 6.11387 10.9667 6.12629 10.7759C6.13872 10.5852 6.10285 10.3943 6.022 10.2211C5.94115 10.0479 5.81793 9.89785 5.66374 9.78486C5.50955 9.67187 5.32936 9.59958 5.13983 9.57466C4.9503 9.54975 4.75754 9.57302 4.57939 9.64233C4.40123 9.71164 4.24343 9.82474 4.12056 9.97119C3.90434 9.93479 3.70801 9.82296 3.56641 9.65556C3.42481 9.48815 3.3471 9.27598 3.34707 9.05672V8.12927H3.81079C4.3617 8.12927 4.87551 7.96789 5.3077 7.69151C5.83271 8.70732 6.6838 9.51728 7.72436 9.99136C8.76492 10.4654 9.93459 10.5762 11.0456 10.3057C12.1566 10.0353 13.1446 9.39941 13.8509 8.50014C14.5571 7.60087 14.9408 6.49038 14.9402 5.34692V5.34692ZM6.59315 5.34692C6.59315 4.486 6.93515 3.66035 7.5439 3.05159C8.15266 2.44283 8.97832 2.10083 9.83923 2.10083C10.7001 2.10083 11.5258 2.44283 12.1346 3.05159C12.7433 3.66035 13.0853 4.486 13.0853 5.34692C13.0853 6.20783 12.7433 7.03348 12.1346 7.64224C11.5258 8.251 10.7001 8.593 9.83923 8.593C8.97832 8.593 8.15266 8.251 7.5439 7.64224C6.93515 7.03348 6.59315 6.20783 6.59315 5.34692ZM4.73825 5.34692C4.73825 5.59289 4.64053 5.82879 4.4666 6.00272C4.29267 6.17665 4.05677 6.27437 3.81079 6.27437H3.34707V4.41946H4.73825V5.34692Z" fill="#121D43"/>
</svg>
