<svg width="23" height="23" viewBox="0 0 23 23" fill="none" xmlns="http://www.w3.org/2000/svg">
<path d="M19.1149 12.2766C19.1597 11.9439 19.1838 11.6088 19.1869 11.2733C19.1838 10.9378 19.1597 10.6027 19.1149 10.2701L21.3443 8.56955C21.445 8.49463 21.5137 8.38618 21.5375 8.26494C21.5612 8.14371 21.5383 8.0182 21.473 7.91242L19.362 4.34587C19.3009 4.23889 19.2017 4.15739 19.0831 4.11673C18.9646 4.07608 18.8349 4.07907 18.7184 4.12515L16.0874 5.1585C15.5399 4.75142 14.9412 4.41427 14.3059 4.15525L13.9095 1.43142C13.892 1.31089 13.8301 1.20067 13.7354 1.1213C13.6407 1.04193 13.5195 0.998826 13.3946 1.00002H9.16232C9.03738 0.998826 8.91626 1.04193 8.82153 1.1213C8.72681 1.20067 8.66493 1.31089 8.64745 1.43142L8.25099 4.15525C7.61486 4.41265 7.01597 4.74992 6.46952 5.1585L3.82821 4.12515C3.71177 4.07907 3.58205 4.07608 3.4635 4.11673C3.34495 4.15739 3.24576 4.23889 3.18461 4.34587L1.07362 7.91242C1.00834 8.0182 0.985381 8.14371 1.00913 8.26494C1.03288 8.38618 1.10167 8.49463 1.20234 8.56955L3.42661 10.2701C3.38193 10.6028 3.35786 10.9378 3.35452 11.2733C3.35768 11.6088 3.38175 11.9439 3.42661 12.2766L1.20234 13.9771C1.10167 14.052 1.03288 14.1604 1.00913 14.2817C0.985381 14.4029 1.00834 14.5284 1.07362 14.6342L3.18461 18.2008C3.24576 18.3077 3.34495 18.3892 3.4635 18.4299C3.58205 18.4705 3.71177 18.4676 3.82821 18.4215L6.45922 17.3881C7.00669 17.7952 7.60538 18.1324 8.24069 18.3914L8.63715 21.1152C8.65463 21.2357 8.71651 21.346 8.81124 21.4253C8.90597 21.5047 9.02709 21.5478 9.15202 21.5466H13.374C13.4989 21.5478 13.6201 21.5047 13.7148 21.4253C13.8095 21.346 13.8714 21.2357 13.8889 21.1152L14.2853 18.3914C14.9215 18.134 15.5204 17.7967 16.0668 17.3881L18.6978 18.4215C18.8143 18.4676 18.944 18.4705 19.0625 18.4299C19.1811 18.3892 19.2803 18.3077 19.3414 18.2008L21.4524 14.6342C21.5177 14.5284 21.5406 14.4029 21.5169 14.2817C21.4932 14.1604 21.4244 14.052 21.3237 13.9771L19.1149 12.2766ZM11.2733 14.875C10.5419 14.876 9.82669 14.6656 9.21807 14.2704C8.60946 13.8753 8.13483 13.3131 7.85424 12.6551C7.57365 11.9971 7.4997 11.2727 7.64176 10.5737C7.78382 9.87475 8.1355 9.23253 8.6523 8.72832C9.16911 8.22412 9.8278 7.8806 10.5451 7.74122C11.2623 7.60184 12.0059 7.67287 12.6817 7.94532C13.3575 8.21778 13.9351 8.67941 14.3416 9.27181C14.748 9.86421 14.965 10.5608 14.965 11.2733C14.9656 11.7461 14.8707 12.2143 14.6854 12.6512C14.5002 13.0882 14.2284 13.4853 13.8855 13.8198C13.5427 14.1543 13.1355 14.4197 12.6872 14.6007C12.239 14.7818 11.7585 14.875 11.2733 14.875Z" stroke="#121D43" stroke-linecap="round" stroke-linejoin="round"/>
</svg>
