<svg width="19" height="22" viewBox="0 0 19 22" fill="none" xmlns="http://www.w3.org/2000/svg">
<path fill-rule="evenodd" clip-rule="evenodd" d="M4.10751 0.772607C3.85466 0.85825 3.63392 1.00561 3.50242 1.17653C3.2996 1.44015 3.25612 1.65902 3.25612 2.41617V3.11193L2.28956 3.11234C1.37048 3.11271 1.31172 3.11751 1.09303 3.21001C0.966577 3.26347 0.788594 3.38633 0.697532 3.48296C0.420482 3.77691 0.390553 3.9182 0.390553 4.93149C0.390553 5.77535 0.396057 5.83377 0.484844 5.93631C0.615204 6.08686 0.848179 6.08686 0.978539 5.93631C1.0671 5.83406 1.07283 5.77498 1.07283 4.96338C1.07283 3.69792 1.0374 3.73163 2.36688 3.73163H3.25612V4.03396C3.25612 4.60941 3.49523 5.00751 3.95859 5.20345C4.39597 5.38846 4.9821 5.30951 5.31855 5.02023C5.56139 4.81147 5.67802 4.5362 5.70253 4.11378L5.72473 3.73163H6.99208H8.25948V4.03396C8.25948 4.42751 8.35373 4.7048 8.56296 4.92682C9.13652 5.53545 10.2577 5.38321 10.6069 4.64932C10.6472 4.56467 10.6907 4.32464 10.704 4.11378L10.7281 3.73163H11.9893H13.2504L13.2745 4.11378C13.2878 4.32464 13.3313 4.56467 13.3716 4.64932C13.7208 5.38321 14.842 5.53545 15.4156 4.92682C15.6248 4.7048 15.719 4.42751 15.719 4.03396V3.73163H16.6083C17.3141 3.73163 17.525 3.74456 17.6309 3.7943C17.9212 3.93068 17.9023 3.45314 17.9023 10.6423V17.1853L18.0076 17.2752C18.1474 17.3945 18.359 17.3919 18.4857 17.2694L18.5846 17.1738V10.6047C18.5846 3.3068 18.6073 3.83272 18.2776 3.48296C18.1866 3.38633 18.0086 3.26347 17.8821 3.21001C17.6635 3.11755 17.6045 3.11271 16.6891 3.11234L15.7261 3.11193L15.7112 2.33731C15.6946 1.47365 15.6531 1.32323 15.3573 1.05453C15.0988 0.819746 14.8757 0.738317 14.4909 0.738317C14.1062 0.738317 13.8831 0.819746 13.6246 1.05453C13.3288 1.32323 13.2873 1.47365 13.2707 2.33731L13.2557 3.11193H11.9893H10.7228L10.7079 2.33731C10.6912 1.47365 10.6497 1.32323 10.3539 1.05453C10.0954 0.819746 9.87234 0.738317 9.48758 0.738317C9.10282 0.738317 8.87976 0.819746 8.62127 1.05453C8.32543 1.32323 8.28395 1.47365 8.2673 2.33731L8.25238 3.11193H6.9859H5.71941L5.70449 2.33731C5.68784 1.47365 5.64636 1.32323 5.35052 1.05453C5.03308 0.766204 4.48999 0.643007 4.10751 0.772607ZM4.71028 1.3883C4.77204 1.41672 4.86929 1.50286 4.92633 1.5797C5.02872 1.71773 5.03004 1.73566 5.03004 2.99543C5.03004 4.37624 5.01507 4.47609 4.78769 4.61144C4.62126 4.71046 4.29891 4.70315 4.15031 4.59698C3.94963 4.45362 3.93171 4.30559 3.94694 2.91896L3.96114 1.63118L4.07485 1.52013C4.26298 1.33637 4.49331 1.28857 4.71028 1.3883ZM9.71364 1.3883C9.77541 1.41672 9.87266 1.50286 9.92969 1.5797C10.0321 1.71773 10.0334 1.73566 10.0334 2.99543C10.0334 4.37624 10.0184 4.47609 9.79106 4.61144C9.641 4.70071 9.31264 4.70232 9.17451 4.61445C8.95795 4.47671 8.94176 4.36409 8.94176 2.99543C8.94176 1.73566 8.94308 1.71773 9.04546 1.5797C9.21562 1.35041 9.47161 1.27708 9.71364 1.3883ZM14.717 1.3883C14.7788 1.41672 14.876 1.50286 14.9331 1.5797C15.0354 1.71773 15.0368 1.73566 15.0368 2.99543C15.0368 4.36409 15.0206 4.47671 14.804 4.61445C14.6659 4.70232 14.3375 4.70071 14.1875 4.61144C13.9601 4.47609 13.9451 4.37624 13.9451 2.99543C13.9451 1.73566 13.9464 1.71773 14.0488 1.5797C14.219 1.35041 14.475 1.27708 14.717 1.3883ZM0.586821 6.91213C0.532194 6.93262 0.465649 6.98641 0.438995 7.03165C0.40529 7.08891 0.390553 9.2151 0.390553 14.0292C0.390553 21.8361 0.359077 21.1825 0.752251 21.5396C1.1462 21.8974 0.367857 21.8682 9.48758 21.8682C18.6073 21.8682 17.829 21.8974 18.2229 21.5396C18.569 21.2252 18.5846 21.1455 18.5846 19.6891C18.5846 18.9492 18.5663 18.4027 18.5401 18.3581C18.4349 18.1796 18.0096 18.1921 17.9319 18.376C17.9156 18.4144 17.9023 18.9937 17.9023 19.6633C17.9023 20.6707 17.8904 20.9016 17.8333 21.0019C17.6828 21.2664 18.29 21.2485 9.48758 21.2485C2.41692 21.2485 1.46205 21.2411 1.34424 21.1858C1.0535 21.0492 1.07283 21.5625 1.07283 13.9839C1.07283 7.47568 1.06833 7.08234 0.993231 7.0017C0.89794 6.89941 0.723413 6.86094 0.586821 6.91213ZM6.09775 6.95233C6.04708 6.97075 5.58868 7.44387 5.07907 8.00367C4.5695 8.56342 4.14167 9.01155 4.12838 8.99948C4.1151 8.98742 4.00039 8.83365 3.87349 8.65782C3.66153 8.36408 3.62905 8.33702 3.47476 8.32537C3.27108 8.31001 3.11966 8.42585 3.11966 8.59705C3.11966 8.66757 3.26148 8.92227 3.48941 9.26112C3.89118 9.85843 3.99334 9.9394 4.21772 9.83843C4.32038 9.79224 5.01093 9.06269 6.24403 7.6977C6.58322 7.32225 6.6237 7.21281 6.47751 7.06652C6.35447 6.94332 6.22734 6.90511 6.09775 6.95233ZM7.6679 8.10811C6.71294 8.37193 6.57585 9.50875 7.45116 9.90495L7.68605 10.0112H11.4812C14.3391 10.0112 15.3226 9.99877 15.4636 9.96076C15.7098 9.89433 16.0452 9.58968 16.1183 9.3661C16.2479 8.96957 16.1068 8.51529 15.7846 8.29212C15.4591 8.06659 15.5106 8.06923 11.4931 8.07307C9.45192 8.07502 7.73058 8.0908 7.6679 8.10811ZM15.2786 8.73727C15.5188 8.85352 15.5677 9.11966 15.38 9.29012L15.2683 9.39155H11.5178H7.76724L7.64543 9.26009C7.55096 9.15808 7.52972 9.10111 7.55069 9.0058C7.58271 8.86055 7.6533 8.77528 7.78029 8.72855C7.93385 8.67199 15.1611 8.68046 15.2786 8.73727ZM6.09775 11.0423C6.04708 11.0608 5.58868 11.5339 5.07907 12.0937C4.5695 12.6534 4.14167 13.1016 4.12838 13.0895C4.1151 13.0774 4.00039 12.9237 3.87349 12.7478C3.66153 12.4541 3.62905 12.427 3.47476 12.4154C3.27108 12.4 3.11966 12.5159 3.11966 12.6871C3.11966 12.7576 3.26148 13.0123 3.48941 13.3511C3.89145 13.9489 3.99293 14.0292 4.21885 13.9284C4.31783 13.8843 5.15535 12.9967 6.35679 11.6628C6.58308 11.4116 6.61183 11.291 6.47751 11.1565C6.35447 11.0333 6.22734 10.9951 6.09775 11.0423ZM7.78189 12.1871C7.38853 12.2698 7.13409 12.432 6.98867 12.6927C6.71631 13.181 6.93368 13.7881 7.46167 14.0135C7.66617 14.1008 7.686 14.1013 11.5225 14.1003C15.1813 14.0995 15.3872 14.0955 15.5598 14.0228C15.9398 13.8626 16.1747 13.5253 16.1729 13.142C16.1712 12.768 15.9609 12.4627 15.5769 12.2767L15.3779 12.1802L11.6254 12.1741C9.56149 12.1707 7.83192 12.1766 7.78189 12.1871ZM15.3819 12.9158C15.5253 13.0673 15.5245 13.2488 15.38 13.3801L15.2683 13.4816H11.5137C7.83592 13.4816 7.75732 13.4799 7.66931 13.4C7.55014 13.2917 7.51598 13.1527 7.57434 13.0133C7.67377 12.7758 7.58239 12.7809 11.5952 12.7908L15.2721 12.7999L15.3819 12.9158ZM6.08484 15.1623C6.05209 15.1742 5.61407 15.6328 5.11145 16.1815C4.60884 16.7302 4.18338 17.1939 4.16591 17.212C4.14849 17.2302 4.03473 17.0966 3.91315 16.9152C3.63128 16.4948 3.47258 16.4165 3.23951 16.5831C3.04202 16.7242 3.07763 16.861 3.45871 17.4252C3.85957 18.0187 3.92184 18.0778 4.12743 18.0599C4.26543 18.0479 4.38192 17.9357 5.38527 16.8486C5.99341 16.1896 6.51076 15.6062 6.53491 15.5521C6.64185 15.3126 6.35493 15.0641 6.08484 15.1623ZM7.46349 16.3747C7.07159 16.5483 6.80982 16.9935 6.87332 17.3782C6.939 17.7761 7.28633 18.1064 7.72612 18.1893C7.89401 18.221 9.10073 18.2314 11.6729 18.2234L15.3779 18.2119L15.5769 18.1155C15.9609 17.9294 16.1712 17.6241 16.1729 17.2501C16.1747 16.8668 15.9398 16.5295 15.5598 16.3694C15.387 16.2965 15.1831 16.2927 11.5117 16.2934C7.77142 16.2941 7.63952 16.2968 7.46349 16.3747ZM15.38 17.012C15.5245 17.1433 15.5253 17.3248 15.3819 17.4763L15.2721 17.5922L11.607 17.6033C8.46698 17.6128 7.91902 17.6056 7.78202 17.5536C7.51953 17.454 7.46422 17.1784 7.66931 16.9922C7.75732 16.9122 7.83592 16.9106 11.5137 16.9106H15.2683L15.38 17.012Z" fill="white"/>
</svg>
