<svg width="27" height="26" viewBox="0 0 27 26" fill="none" xmlns="http://www.w3.org/2000/svg">
<path d="M19.397 0H8.50295C3.77095 0 0.949951 2.821 0.949951 7.553V18.447C0.949951 23.179 3.77095 26 8.50295 26H19.397C24.129 26 26.95 23.179 26.95 18.447V7.553C26.95 2.821 24.129 0 19.397 0ZM11.311 16.77L8.38595 19.695C8.19095 19.89 7.94395 19.981 7.69695 19.981C7.44995 19.981 7.18995 19.89 7.00795 19.695L6.03295 18.72C5.64295 18.343 5.64295 17.719 6.03295 17.342C6.40995 16.965 7.02095 16.965 7.41095 17.342L7.69695 17.628L9.93295 15.392C10.31 15.015 10.921 15.015 11.311 15.392C11.688 15.769 11.688 16.393 11.311 16.77ZM11.311 7.67L8.38595 10.595C8.19095 10.79 7.94395 10.881 7.69695 10.881C7.44995 10.881 7.18995 10.79 7.00795 10.595L6.03295 9.62C5.64295 9.243 5.64295 8.619 6.03295 8.242C6.40995 7.865 7.02095 7.865 7.41095 8.242L7.69695 8.528L9.93295 6.292C10.31 5.915 10.921 5.915 11.311 6.292C11.688 6.669 11.688 7.293 11.311 7.67ZM21.1779 19.006H14.353C13.82 19.006 13.378 18.564 13.378 18.031C13.378 17.498 13.82 17.056 14.353 17.056H21.1779C21.4365 17.056 21.6845 17.1587 21.8674 17.3416C22.0502 17.5244 22.153 17.7724 22.153 18.031C22.153 18.2896 22.0502 18.5376 21.8674 18.7204C21.6845 18.9033 21.4365 19.006 21.1779 19.006ZM21.1779 9.906H14.353C13.82 9.906 13.378 9.464 13.378 8.931C13.378 8.398 13.82 7.956 14.353 7.956H21.1779C21.4365 7.956 21.6845 8.05872 21.8674 8.24157C22.0502 8.42442 22.153 8.67241 22.153 8.931C22.153 9.18959 22.0502 9.43758 21.8674 9.62043C21.6845 9.80328 21.4365 9.906 21.1779 9.906Z" fill="#CCCCCC"/>
</svg>
