<svg width="9" height="13" viewBox="0 0 9 13" fill="none" xmlns="http://www.w3.org/2000/svg">
<path d="M4.50001 0.25C2.86251 0.25 1.53126 1.58125 1.53126 3.21875C1.53126 4.825 2.78751 6.125 4.42501 6.18125C4.47501 6.175 4.52501 6.175 4.56251 6.18125H4.60626C5.3746 6.15561 6.10287 5.83217 6.63706 5.27932C7.17126 4.72646 7.46951 3.98752 7.46876 3.21875C7.46876 1.58125 6.13751 0.25 4.50001 0.25ZM7.67501 7.84313C5.93126 6.68063 3.08751 6.68063 1.33126 7.84313C0.537506 8.37438 0.100006 9.09312 0.100006 9.86187C0.100006 10.6306 0.537506 11.3431 1.32501 11.8681C2.20001 12.4556 3.35001 12.7494 4.50001 12.7494C5.65001 12.7494 6.80001 12.4556 7.67501 11.8681C8.46251 11.3369 8.90001 10.6244 8.90001 9.84937C8.89376 9.08062 8.46251 8.36813 7.67501 7.84313V7.84313Z" fill="#121D43"/>
</svg>
